The_Oblique_Function_Regular.ufo
<glyph name="exclam" format="2">
  <advance width="500"/>
  <unicode hex="0021"/>
  <outline>
    <contour>
      <point x="382" y="202" type="line"/>
      <point x="424" y="201" type="line"/>
      <point x="1020" y="750" type="line"/>
      <point x="978" y="749" type="line"/>
    </contour>
    <contour>
      <point x="163" y="0" type="line"/>
      <point x="204" y="-1" type="line"/>
      <point x="312" y="100" type="line"/>
      <point x="270" y="99" type="line"/>
    </contour>
  </outline>
</glyph>
<glyph name="comma" format="2">
  <advance width="112"/>
  <unicode hex="002C"/>
  <outline>
    <contour>
      <point x="-133" y="-62" type="line"/>
      <point x="-80" y="-62" type="line"/>
      <point x="77" y="74" type="line"/>
      <point x="24" y="74" type="line"/>
    </contour>
  </outline>
</glyph>
<glyph name="hyphen" format="2">
  <advance width="402"/>
  <unicode hex="002D"/>
  <outline>
    <contour>
      <point x="227" y="286" type="line"/>
      <point x="190" y="259" type="line"/>
      <point x="443" y="259" type="line"/>
      <point x="475" y="286" type="line"/>
    </contour>
  </outline>
</glyph>
<glyph name="period" format="2">
  <advance width="105"/>
  <unicode hex="002E"/>
  <outline>
    <contour>
      <point x="12" y="0" type="line"/>
      <point x="75" y="0" type="line"/>
      <point x="164" y="74" type="line"/>
      <point x="100" y="74" type="line"/>
    </contour>
  </outline>
</glyph>
<glyph name="colon" format="2">
  <advance width="215"/>
  <unicode hex="003A"/>
  <outline>
    <contour>
      <point x="366" y="294" type="line"/>
      <point x="429" y="294" type="line"/>
      <point x="518" y="368" type="line"/>
      <point x="455" y="368" type="line"/>
    </contour>
    <contour>
      <point x="12" y="0" type="line"/>
      <point x="75" y="0" type="line"/>
      <point x="164" y="74" type="line"/>
      <point x="100" y="74" type="line"/>
    </contour>
  </outline>
</glyph>
<glyph name="semicolon" format="2">
  <advance width="206"/>
  <unicode hex="003B"/>
  <outline>
    <contour>
      <point x="366" y="294" type="line"/>
      <point x="429" y="294" type="line"/>
      <point x="518" y="368" type="line"/>
      <point x="455" y="368" type="line"/>
    </contour>
    <contour>
      <point x="-47" y="-62" type="line"/>
      <point x="6" y="-62" type="line"/>
      <point x="163" y="74" type="line"/>
      <point x="110" y="74" type="line"/>
    </contour>
  </outline>
</glyph>
<glyph name="A" format="2">
  <advance width="669"/>
  <unicode hex="0041"/>
  <outline>
    <contour>
      <point x="589" y="0" type="line"/>
      <point x="630" y="1" type="line"/>
      <point x="1222" y="751" type="line"/>
      <point x="1165" y="751" type="line"/>
      <point x="41" y="1" type="line"/>
      <point x="98" y="2" type="line"/>
      <point x="528" y="289" type="line"/>
      <point x="816" y="289" type="line"/>
    </contour>
    <contour>
      <point x="839" y="318" type="line"/>
      <point x="572" y="318" type="line"/>
      <point x="1134" y="692" type="line"/>
    </contour>
  </outline>
</glyph>
<glyph name="B" format="2">
  <advance width="735"/>
  <unicode hex="0042"/>
  <outline>
    <contour>
      <point x="889" y="182" type="curve" smooth="yes"/>
      <point x="939" y="261"/>
      <point x="947" y="348"/>
      <point x="887" y="390" type="curve"/>
      <point x="938" y="399"/>
      <point x="984" y="424"/>
      <point x="1020" y="445" type="curve" smooth="yes"/>
      <point x="1053" y="465"/>
      <point x="1106" y="507"/>
      <point x="1142" y="570" type="curve" smooth="yes"/>
      <point x="1183" y="641"/>
      <point x="1127" y="754"/>
      <point x="1018" y="752" type="curve" smooth="yes"/>
      <point x="952" y="751" type="line"/>
      <point x="935" y="751" type="line"/>
      <point x="51" y="0" type="line"/>
      <point x="361" y="0" type="line" smooth="yes"/>
      <point x="390" y="0"/>
      <point x="753" y="-35"/>
    </contour>
    <contour>
      <point x="792" y="417" type="line"/>
      <point x="783" y="417" type="line"/>
      <point x="597" y="416" type="line"/>
      <point x="961" y="725" type="line"/>
      <point x="1015" y="726" type="line" smooth="yes"/>
      <point x="1092" y="727"/>
      <point x="1145" y="634"/>
      <point x="1103" y="569" type="curve" smooth="yes"/>
      <point x="1062" y="507"/>
      <point x="1021" y="485"/>
      <point x="983" y="461" type="curve"/>
      <point x="983" y="461"/>
      <point x="900" y="412"/>
      <point x="812" y="415" type="curve"/>
      <point x="807" y="416"/>
      <point x="802" y="416"/>
      <point x="796" y="416" type="curve"/>
    </contour>
    <contour>
      <point x="351" y="33" type="curve" smooth="yes"/>
      <point x="146" y="33" type="line"/>
      <point x="562" y="386" type="line"/>
      <point x="779" y="387" type="line" smooth="yes"/>
      <point x="891" y="388"/>
      <point x="924" y="306"/>
      <point x="853" y="196" type="curve" smooth="yes"/>
      <point x="739" y="18"/>
      <point x="408" y="34"/>
    </contour>
  </outline>
</glyph>
<glyph name="C" format="2">
  <advance width="656"/>
  <unicode hex="0043"/>
  <outline>
    <contour>
      <point x="790" y="146" type="curve"/>
      <point x="739" y="148" type="line"/>
      <point x="639" y="77"/>
      <point x="514" y="29"/>
      <point x="398" y="29" type="curve" smooth="yes"/>
      <point x="319" y="29"/>
      <point x="275" y="48"/>
      <point x="288" y="98" type="curve" smooth="yes"/>
      <point x="305" y="159"/>
      <point x="403" y="283"/>
      <point x="630" y="447" type="curve" smooth="yes"/>
      <point x="895" y="639"/>
      <point x="1065" y="718"/>
      <point x="1143" y="718" type="curve" smooth="yes"/>
      <point x="1245" y="718"/>
      <point x="1263" y="633"/>
      <point x="1180" y="544" type="curve" smooth="yes"/>
      <point x="1142" y="503"/>
      <point x="1003" y="401"/>
      <point x="1003" y="401" type="curve"/>
      <point x="1063" y="403" type="line"/>
      <point x="1063" y="403"/>
      <point x="1150" y="463"/>
      <point x="1214" y="529" type="curve" smooth="yes"/>
      <point x="1300" y="617"/>
      <point x="1308" y="749"/>
      <point x="1153" y="749" type="curve" smooth="yes"/>
      <point x="1052" y="749"/>
      <point x="877" y="668"/>
      <point x="612" y="472" type="curve" smooth="yes"/>
      <point x="381" y="302"/>
      <point x="266" y="175"/>
      <point x="246" y="95" type="curve" smooth="yes"/>
      <point x="228" y="26"/>
      <point x="282" y="-4"/>
      <point x="389" y="-4" type="curve" smooth="yes"/>
      <point x="528" y="-4"/>
      <point x="634" y="39"/>
    </contour>
  </outline>
</glyph>
<glyph name="D" format="2">
  <advance width="732"/>
  <unicode hex="0044"/>
  <outline>
    <contour>
      <point x="753" y="84" type="curve" smooth="yes"/>
      <point x="974" y="225"/>
      <point x="1205" y="397"/>
      <point x="1229" y="574" type="curve" smooth="yes"/>
      <point x="1246" y="698"/>
      <point x="1139" y="750"/>
      <point x="1072" y="750" type="curve" smooth="yes"/>
      <point x="990" y="750" type="line"/>
      <point x="937" y="753" type="line"/>
      <point x="54" y="3" type="line"/>
      <point x="69" y="2" type="line"/>
      <point x="67" y="0" type="line"/>
      <point x="319" y="0" type="line" smooth="yes"/>
      <point x="406" y="0"/>
      <point x="619" y="-2"/>
    </contour>
    <contour>
      <point x="1069" y="724" type="line" smooth="yes"/>
      <point x="1108" y="724"/>
      <point x="1203" y="681"/>
      <point x="1191" y="593" type="curve" smooth="yes"/>
      <point x="1166" y="408"/>
      <point x="944" y="263"/>
      <point x="728" y="110" type="curve" smooth="yes"/>
      <point x="614" y="29"/>
      <point x="371" y="28"/>
      <point x="310" y="28" type="curve" smooth="yes"/>
      <point x="139" y="27" type="line"/>
      <point x="958" y="723" type="line"/>
    </contour>
  </outline>
</glyph>
<glyph name="E" format="2">
  <advance width="594"/>
  <unicode hex="0045"/>
  <outline>
    <contour>
      <point x="100" y="0" type="line"/>
      <point x="554" y="0" type="line"/>
      <point x="588" y="29" type="line"/>
      <point x="133" y="29" type="line"/>
      <point x="531" y="368" type="line"/>
      <point x="987" y="368" type="line"/>
      <point x="1020" y="397" type="line"/>
      <point x="565" y="397" type="line"/>
      <point x="947" y="721" type="line"/>
      <point x="1404" y="721" type="line"/>
      <point x="1438" y="750" type="line"/>
      <point x="934" y="750" type="line"/>
      <point x="51" y="0" type="line"/>
      <point x="99" y="0" type="line"/>
      <point x="100" y="1" type="line"/>
    </contour>
  </outline>
</glyph>
<glyph name="F" format="2">
  <advance width="498"/>
  <unicode hex="0046"/>
  <outline>
    <contour>
      <point x="98" y="0" type="line"/>
      <point x="531" y="368" type="line"/>
      <point x="897" y="368" type="line"/>
      <point x="931" y="397" type="line"/>
      <point x="565" y="397" type="line"/>
      <point x="946" y="721" type="line"/>
      <point x="1312" y="721" type="line"/>
      <point x="1347" y="750" type="line"/>
      <point x="934" y="750" type="line"/>
      <point x="51" y="0" type="line"/>
    </contour>
  </outline>
</glyph>
<glyph name="G" format="2">
  <advance width="656"/>
  <unicode hex="0047"/>
  <outline>
    <contour>
      <point x="822" y="173" type="curve" smooth="yes"/>
      <point x="944" y="280" type="line"/>
      <point x="946" y="281" type="line"/>
      <point x="647" y="281" type="line"/>
      <point x="616" y="252" type="line"/>
      <point x="863" y="252" type="line"/>
      <point x="771" y="175" type="line" smooth="yes"/>
      <point x="677" y="96"/>
      <point x="546" y="55"/>
      <point x="430" y="55" type="curve" smooth="yes"/>
      <point x="352" y="55"/>
      <point x="307" y="75"/>
      <point x="321" y="124" type="curve" smooth="yes"/>
      <point x="337" y="185"/>
      <point x="435" y="309"/>
      <point x="663" y="474" type="curve" smooth="yes"/>
      <point x="927" y="666"/>
      <point x="1097" y="745"/>
      <point x="1175" y="745" type="curve" smooth="yes"/>
      <point x="1278" y="745"/>
      <point x="1296" y="660"/>
      <point x="1212" y="570" type="curve" smooth="yes"/>
      <point x="1175" y="530"/>
      <point x="1035" y="428"/>
      <point x="1035" y="428" type="curve"/>
      <point x="1096" y="429" type="line"/>
      <point x="1096" y="429"/>
      <point x="1182" y="490"/>
      <point x="1246" y="556" type="curve" smooth="yes"/>
      <point x="1332" y="644"/>
      <point x="1341" y="776"/>
      <point x="1186" y="776" type="curve" smooth="yes"/>
      <point x="1085" y="776"/>
      <point x="910" y="695"/>
      <point x="644" y="499" type="curve" smooth="yes"/>
      <point x="414" y="329"/>
      <point x="299" y="202"/>
      <point x="278" y="122" type="curve" smooth="yes"/>
      <point x="261" y="53"/>
      <point x="314" y="23"/>
      <point x="422" y="23" type="curve" smooth="yes"/>
      <point x="560" y="23"/>
      <point x="679" y="48"/>
    </contour>
  </outline>
</glyph>
<glyph name="H" format="2">
  <advance width="564"/>
  <unicode hex="0048"/>
  <outline>
    <contour>
      <point x="524" y="0" type="line"/>
      <point x="1392" y="726" type="line"/>
      <point x="1372" y="750" type="line"/>
      <point x="944" y="397" type="line"/>
      <point x="565" y="397" type="line"/>
      <point x="953" y="726" type="line"/>
      <point x="933" y="750" type="line"/>
      <point x="64" y="25" type="line"/>
      <point x="85" y="0" type="line"/>
      <point x="531" y="368" type="line"/>
      <point x="910" y="368" type="line"/>
      <point x="503" y="25" type="line"/>
    </contour>
  </outline>
</glyph>
<glyph name="I" format="2">
  <advance width="133"/>
  <unicode hex="0049"/>
  <outline>
    <contour>
      <point x="91" y="0" type="line"/>
      <point x="958" y="726" type="line"/>
      <point x="938" y="750" type="line"/>
      <point x="70" y="25" type="line"/>
    </contour>
  </outline>
</glyph>
<glyph name="J" format="2">
  <advance width="340"/>
  <unicode hex="004A"/>
  <outline>
    <contour>
      <point x="-207" y="-208" type="line"/>
      <point x="-126" y="-265"/>
      <point x="-19" y="-260"/>
      <point x="49" y="-204" type="curve" smooth="yes"/>
      <point x="1199" y="754" type="line"/>
      <point x="1140" y="758" type="line"/>
      <point x="22" y="-178" type="line" smooth="yes"/>
      <point x="-22" y="-214"/>
      <point x="-111" y="-229"/>
      <point x="-177" y="-182" type="curve"/>
    </contour>
  </outline>
</glyph>
<glyph name="K" format="2">
  <advance width="622"/>
  <unicode hex="004B"/>
  <outline>
    <contour>
      <point x="548" y="40" type="line"/>
      <point x="582" y="0" type="line"/>
      <point x="660" y="422" type="line"/>
      <point x="1281" y="750" type="line"/>
      <point x="1256" y="771" type="line"/>
      <point x="610" y="434" type="line"/>
      <point x="982" y="750" type="line"/>
      <point x="962" y="774" type="line"/>
      <point x="79" y="24" type="line"/>
      <point x="99" y="0" type="line"/>
      <point x="488" y="331" type="line"/>
      <point x="610" y="395" type="line"/>
    </contour>
  </outline>
</glyph>
<glyph name="L" format="2">
  <advance width="582"/>
  <unicode hex="004C"/>
  <outline>
    <contour>
      <point x="577" y="29" type="line"/>
      <point x="136" y="29" type="line"/>
      <point x="968" y="726" type="line"/>
      <point x="948" y="750" type="line"/>
      <point x="51" y="0" type="line"/>
      <point x="542" y="0" type="line"/>
    </contour>
  </outline>
</glyph>
<glyph name="M" format="2">
  <advance width="867"/>
  <unicode hex="004D"/>
  <outline>
    <contour>
      <point x="413" y="0" type="line"/>
      <point x="468" y="0" type="line"/>
      <point x="1305" y="664" type="line"/>
      <point x="786" y="0" type="line"/>
      <point x="827" y="0" type="line"/>
      <point x="1415" y="750" type="line"/>
      <point x="1361" y="750" type="line"/>
      <point x="522" y="86" type="line"/>
      <point x="1042" y="750" type="line"/>
      <point x="989" y="750" type="line"/>
      <point x="40" y="0" type="line"/>
      <point x="95" y="0" type="line"/>
      <point x="931" y="662" type="line"/>
    </contour>
  </outline>
</glyph>
<glyph name="N" format="2">
  <advance width="639"/>
  <unicode hex="004E"/>
  <outline>
    <contour>
      <point x="131" y="0" type="line"/>
      <point x="999" y="726" type="line"/>
      <point x="979" y="750" type="line"/>
      <point x="110" y="25" type="line"/>
    </contour>
    <contour>
      <point x="556" y="0" type="line"/>
      <point x="1424" y="726" type="line"/>
      <point x="1404" y="750" type="line"/>
      <point x="535" y="25" type="line"/>
    </contour>
    <contour>
      <point x="556" y="0" type="line"/>
      <point x="999" y="726" type="line"/>
      <point x="979" y="750" type="line"/>
      <point x="535" y="25" type="line"/>
    </contour>
  </outline>
</glyph>
<glyph name="O" format="2">
  <advance width="715"/>
  <unicode hex="004F"/>
  <outline>
    <contour>
      <point x="1088" y="347" type="curve" smooth="yes"/>
      <point x="1281" y="502"/>
      <point x="1355" y="749"/>
      <point x="1179" y="749" type="curve" smooth="yes"/>
      <point x="1078" y="749"/>
      <point x="890" y="679"/>
      <point x="625" y="483" type="curve" smooth="yes"/>
      <point x="394" y="313"/>
      <point x="272" y="178"/>
      <point x="272" y="95" type="curve" smooth="yes"/>
      <point x="272" y="-19"/>
      <point x="554" y="-83"/>
    </contour>
    <contour>
      <point x="314" y="98" type="curve" smooth="yes"/>
      <point x="314" y="161"/>
      <point x="416" y="293"/>
      <point x="643" y="458" type="curve" smooth="yes"/>
      <point x="908" y="650"/>
      <point x="1091" y="718"/>
      <point x="1169" y="718" type="curve" smooth="yes"/>
      <point x="1286" y="718"/>
      <point x="1249" y="517"/>
      <point x="1054" y="360" type="curve" smooth="yes"/>
      <point x="707" y="79"/>
      <point x="314" y="-40"/>
    </contour>
  </outline>
</glyph>
<glyph name="P" format="2">
  <advance width="554"/>
  <unicode hex="0050"/>
  <outline>
    <contour>
      <point x="101" y="0" type="line"/>
      <point x="561" y="391" type="line"/>
      <point x="778" y="390" type="line" smooth="yes"/>
      <point x="926" y="389"/>
      <point x="978" y="408"/>
      <point x="1039" y="445" type="curve" smooth="yes"/>
      <point x="1072" y="465"/>
      <point x="1125" y="507"/>
      <point x="1161" y="570" type="curve" smooth="yes"/>
      <point x="1202" y="641"/>
      <point x="1146" y="754"/>
      <point x="1037" y="752" type="curve" smooth="yes"/>
      <point x="952" y="750" type="line"/>
      <point x="934" y="750" type="line"/>
      <point x="52" y="0" type="line"/>
    </contour>
    <contour>
      <point x="762" y="417" type="curve" smooth="yes"/>
      <point x="592" y="417" type="line"/>
      <point x="954" y="725" type="line"/>
      <point x="1034" y="726" type="line" smooth="yes"/>
      <point x="1111" y="727"/>
      <point x="1164" y="634"/>
      <point x="1122" y="569" type="curve" smooth="yes"/>
      <point x="1081" y="507"/>
      <point x="1040" y="485"/>
      <point x="1002" y="461" type="curve" smooth="yes"/>
      <point x="955" y="431"/>
      <point x="865" y="417"/>
    </contour>
  </outline>
</glyph>
<glyph name="Q" format="2">
  <advance width="721"/>
  <unicode hex="0051"/>
  <outline>
    <contour>
      <point x="555" y="-42" type="line"/>
      <point x="592" y="-32" type="line"/>
      <point x="590" y="30" type="line"/>
      <point x="715" y="77"/>
      <point x="874" y="168"/>
      <point x="1065" y="322" type="curve" smooth="yes"/>
      <point x="1258" y="477"/>
      <point x="1356" y="759"/>
      <point x="1180" y="759" type="curve" smooth="yes"/>
      <point x="1079" y="759"/>
      <point x="863" y="657"/>
      <point x="598" y="461" type="curve" smooth="yes"/>
      <point x="367" y="291"/>
      <point x="249" y="153"/>
      <point x="249" y="70" type="curve" smooth="yes"/>
      <point x="249" y="1"/>
      <point x="353" y="-50"/>
      <point x="554" y="17" type="curve"/>
    </contour>
    <contour>
      <point x="291" y="73" type="curve" smooth="yes"/>
      <point x="291" y="136"/>
      <point x="389" y="272"/>
      <point x="616" y="436" type="curve" smooth="yes"/>
      <point x="880" y="628"/>
      <point x="1092" y="728"/>
      <point x="1170" y="728" type="curve" smooth="yes"/>
      <point x="1287" y="728"/>
      <point x="1218" y="498"/>
      <point x="1023" y="340" type="curve" smooth="yes"/>
      <point x="874" y="220"/>
      <point x="718" y="128"/>
      <point x="589" y="74" type="curve"/>
      <point x="588" y="114" type="line"/>
      <point x="552" y="104" type="line"/>
      <point x="553" y="59" type="line"/>
      <point x="399" y="0"/>
      <point x="291" y="-1"/>
    </contour>
  </outline>
</glyph>
<glyph name="R" format="2">
  <advance width="652"/>
  <unicode hex="0052"/>
  <outline>
    <contour>
      <point x="612" y="0" type="line"/>
      <point x="722" y="390" type="line"/>
      <point x="775" y="390" type="line" smooth="yes"/>
      <point x="923" y="389"/>
      <point x="975" y="408"/>
      <point x="1036" y="445" type="curve" smooth="yes"/>
      <point x="1069" y="465"/>
      <point x="1122" y="507"/>
      <point x="1158" y="570" type="curve" smooth="yes"/>
      <point x="1199" y="641"/>
      <point x="1143" y="754"/>
      <point x="1034" y="752" type="curve" smooth="yes"/>
      <point x="951" y="750" type="line"/>
      <point x="934" y="750" type="line"/>
      <point x="52" y="0" type="line"/>
      <point x="101" y="0" type="line"/>
      <point x="561" y="391" type="line"/>
      <point x="672" y="391" type="line"/>
      <point x="569" y="0" type="line"/>
    </contour>
    <contour>
      <point x="760" y="421" type="curve" smooth="yes"/>
      <point x="597" y="422" type="line"/>
      <point x="954" y="725" type="line"/>
      <point x="1031" y="726" type="line" smooth="yes"/>
      <point x="1108" y="727"/>
      <point x="1159" y="634"/>
      <point x="1116" y="569" type="curve" smooth="yes"/>
      <point x="1076" y="507"/>
      <point x="1036" y="486"/>
      <point x="998" y="462" type="curve" smooth="yes"/>
      <point x="951" y="432"/>
      <point x="863" y="421"/>
    </contour>
  </outline>
</glyph>
<glyph name="S" format="2">
  <advance width="569"/>
  <unicode hex="0053"/>
  <outline>
    <contour>
      <point x="353" y="-4" type="curve" smooth="yes"/>
      <point x="444" y="-7"/>
      <point x="546" y="37"/>
      <point x="625" y="90" type="curve" smooth="yes"/>
      <point x="778" y="193"/>
      <point x="787" y="302"/>
      <point x="779" y="397" type="curve" smooth="yes"/>
      <point x="773" y="478"/>
      <point x="770" y="556"/>
      <point x="894" y="633" type="curve" smooth="yes"/>
      <point x="966" y="679"/>
      <point x="1032" y="718"/>
      <point x="1124" y="718" type="curve" smooth="yes"/>
      <point x="1197" y="718"/>
      <point x="1171" y="623"/>
      <point x="1091" y="508" type="curve"/>
      <point x="1132" y="506" type="line"/>
      <point x="1218" y="630"/>
      <point x="1246" y="749"/>
      <point x="1134" y="749" type="curve" smooth="yes"/>
      <point x="1017" y="749"/>
      <point x="934" y="699"/>
      <point x="877" y="662" type="curve" smooth="yes"/>
      <point x="713" y="557"/>
      <point x="726" y="479"/>
      <point x="736" y="395" type="curve" smooth="yes"/>
      <point x="746" y="306"/>
      <point x="749" y="212"/>
      <point x="607" y="116" type="curve" smooth="yes"/>
      <point x="527" y="63"/>
      <point x="425" y="25"/>
      <point x="364" y="27" type="curve" smooth="yes"/>
      <point x="262" y="31"/>
      <point x="250" y="124"/>
      <point x="334" y="213" type="curve"/>
      <point x="297" y="216" type="line"/>
      <point x="211" y="128"/>
      <point x="199" y="0"/>
    </contour>
  </outline>
</glyph>
<glyph name="T" format="2">
  <advance width="562"/>
  <unicode hex="0054"/>
  <outline>
    <contour>
      <point x="322" y="0" type="line"/>
      <point x="1170" y="721" type="line"/>
      <point x="1381" y="721" type="line"/>
      <point x="1415" y="750" type="line"/>
      <point x="934" y="750" type="line"/>
      <point x="900" y="721" type="line"/>
      <point x="1123" y="721" type="line"/>
      <point x="275" y="0" type="line"/>
    </contour>
  </outline>
</glyph>
<glyph name="U" format="2">
  <advance width="627"/>
  <unicode hex="0055"/>
  <outline>
    <contour>
      <point x="635" y="474" type="line" smooth="yes"/>
      <point x="243" y="112"/>
      <point x="170" y="-7"/>
      <point x="404" y="-7" type="curve" smooth="yes"/>
      <point x="537" y="-7"/>
      <point x="615" y="27"/>
      <point x="913" y="274" type="curve" smooth="yes"/>
      <point x="1019" y="361"/>
      <point x="1322" y="636"/>
      <point x="1450" y="749" type="curve"/>
      <point x="1410" y="751" type="line"/>
      <point x="1279" y="637"/>
      <point x="1006" y="393"/>
      <point x="889" y="295" type="curve" smooth="yes"/>
      <point x="655" y="100"/>
      <point x="549" y="29"/>
      <point x="419" y="29" type="curve" smooth="yes"/>
      <point x="244" y="29"/>
      <point x="280" y="104"/>
      <point x="654" y="449" type="curve" smooth="yes"/>
      <point x="981" y="751" type="line"/>
      <point x="934" y="750" type="line"/>
    </contour>
  </outline>
</glyph>
<glyph name="V" format="2">
  <advance width="675"/>
  <unicode hex="0056"/>
  <outline>
    <contour>
      <point x="336" y="0" type="line"/>
      <point x="1529" y="750" type="line"/>
      <point x="1468" y="749" type="line"/>
      <point x="379" y="65" type="line"/>
      <point x="982" y="751" type="line"/>
      <point x="934" y="750" type="line"/>
      <point x="273" y="0" type="line"/>
    </contour>
  </outline>
</glyph>
<glyph name="W" format="2">
  <advance width="955"/>
  <unicode hex="0057"/>
  <outline>
    <contour>
      <point x="616" y="0" type="line"/>
      <point x="1809" y="750" type="line"/>
      <point x="1748" y="749" type="line"/>
      <point x="659" y="65" type="line"/>
      <point x="930" y="373" type="line"/>
      <point x="1529" y="750" type="line"/>
      <point x="1468" y="749" type="line"/>
      <point x="1004" y="458" type="line"/>
      <point x="1262" y="751" type="line"/>
      <point x="1214" y="750" type="line"/>
      <point x="897" y="390" type="line"/>
      <point x="379" y="65" type="line"/>
      <point x="982" y="751" type="line"/>
      <point x="934" y="750" type="line"/>
      <point x="273" y="0" type="line"/>
      <point x="336" y="0" type="line"/>
      <point x="822" y="306" type="line"/>
      <point x="553" y="0" type="line"/>
    </contour>
  </outline>
</glyph>
<glyph name="X" format="2">
  <advance width="647"/>
  <unicode hex="0058"/>
  <outline>
    <contour>
      <point x="502" y="1" type="line"/>
      <point x="544" y="0" type="line"/>
      <point x="828" y="386" type="line"/>
      <point x="1506" y="754" type="line"/>
      <point x="1430" y="752" type="line"/>
      <point x="878" y="453" type="line"/>
      <point x="1098" y="751" type="line"/>
      <point x="1055" y="750" type="line"/>
      <point x="808" y="415" type="line"/>
      <point x="39" y="-1" type="line"/>
      <point x="114" y="-2" type="line"/>
      <point x="758" y="348" type="line"/>
    </contour>
  </outline>
</glyph>
<glyph name="Y" format="2">
  <advance width="523"/>
  <unicode hex="0059"/>
  <outline>
    <contour>
      <point x="196" y="-5" type="line"/>
      <point x="250" y="0" type="line"/>
      <point x="708" y="388" type="line"/>
      <point x="1382" y="754" type="line"/>
      <point x="1307" y="747" type="line"/>
      <point x="744" y="443" type="line"/>
      <point x="973" y="751" type="line"/>
      <point x="934" y="750" type="line"/>
      <point x="674" y="401" type="line"/>
    </contour>
  </outline>
</glyph>
<glyph name="Z" format="2">
  <advance width="1134"/>
  <unicode hex="005A"/>
  <outline>
    <contour>
      <point x="260" y="0" type="line"/>
      <point x="917" y="0" type="line"/>
      <point x="956" y="35" type="line"/>
      <point x="362" y="35" type="line"/>
      <point x="1480" y="721" type="line"/>
      <point x="1491" y="749" type="line"/>
      <point x="1491" y="750" type="line"/>
      <point x="934" y="750" type="line"/>
      <point x="899" y="721" type="line"/>
      <point x="1417" y="721" type="line"/>
      <point x="303" y="38" type="line"/>
      <point x="291" y="28" type="line"/>
    </contour>
  </outline>
</glyph>
<glyph name="underscore" format="2">
  <advance width="401"/>
  <unicode hex="005F"/>
  <outline>
    <contour>
      <point x="46" y="26" type="line"/>
      <point x="8" y="0" type="line"/>
      <point x="356" y="0" type="line"/>
      <point x="385" y="26" type="line"/>
    </contour>
  </outline>
</glyph>
<glyph name="b" format="2">
  <advance width="587"/>
  <unicode hex="0062"/>
  <outline>
    <contour>
      <point x="130" y="0" type="line"/>
      <point x="321" y="160" type="line"/>
      <point x="292" y="127"/>
      <point x="284" y="103"/>
      <point x="284" y="67" type="curve" smooth="yes"/>
      <point x="284" y="28"/>
      <point x="317" y="0"/>
      <point x="389" y="0" type="curve" smooth="yes"/>
      <point x="493" y="0"/>
      <point x="632" y="65"/>
      <point x="755" y="166" type="curve" smooth="yes"/>
      <point x="877" y="266"/>
      <point x="939" y="372"/>
      <point x="939" y="425" type="curve" smooth="yes"/>
      <point x="939" y="469"/>
      <point x="908" y="502"/>
      <point x="837" y="502" type="curve" smooth="yes"/>
      <point x="806" y="502"/>
      <point x="732" y="493"/>
      <point x="681" y="461" type="curve"/>
      <point x="1026" y="750" type="line"/>
      <point x="1006" y="774" type="line"/>
      <point x="110" y="25" type="line"/>
    </contour>
    <contour>
      <point x="394" y="29" type="curve" smooth="yes"/>
      <point x="342" y="29"/>
      <point x="325" y="50"/>
      <point x="325" y="83" type="curve" smooth="yes"/>
      <point x="325" y="139"/>
      <point x="380" y="198"/>
      <point x="448" y="266" type="curve"/>
      <point x="545" y="346" type="line" smooth="yes"/>
      <point x="646" y="432"/>
      <point x="732" y="474"/>
      <point x="829" y="474" type="curve" smooth="yes"/>
      <point x="885" y="474"/>
      <point x="905" y="453"/>
      <point x="905" y="419" type="curve" smooth="yes"/>
      <point x="905" y="381"/>
      <point x="830" y="266"/>
      <point x="730" y="187" type="curve" smooth="yes"/>
      <point x="612" y="94"/>
      <point x="477" y="29"/>
    </contour>
  </outline>
</glyph>
<glyph name="d" format="2">
  <advance width="600"/>
  <unicode hex="0064"/>
  <outline>
    <contour>
      <point x="489" y="-25" type="line"/>
      <point x="1414" y="750" type="line"/>
      <point x="1394" y="774" type="line"/>
      <point x="895" y="357" type="line"/>
      <point x="901" y="378"/>
      <point x="904" y="401"/>
      <point x="904" y="426" type="curve" smooth="yes"/>
      <point x="904" y="470"/>
      <point x="874" y="502"/>
      <point x="803" y="502" type="curve" smooth="yes"/>
      <point x="573" y="502"/>
      <point x="250" y="225"/>
      <point x="250" y="67" type="curve" smooth="yes"/>
      <point x="250" y="28"/>
      <point x="283" y="0"/>
      <point x="355" y="0" type="curve" smooth="yes"/>
      <point x="406" y="0"/>
      <point x="458" y="12"/>
      <point x="509" y="34" type="curve"/>
      <point x="468" y="0" type="line"/>
    </contour>
    <contour>
      <point x="291" y="83" type="curve" smooth="yes"/>
      <point x="291" y="199"/>
      <point x="593" y="474"/>
      <point x="795" y="474" type="curve" smooth="yes"/>
      <point x="851" y="474"/>
      <point x="871" y="453"/>
      <point x="871" y="419" type="curve" smooth="yes"/>
      <point x="871" y="373"/>
      <point x="850" y="323"/>
      <point x="813" y="288" type="curve"/>
      <point x="630" y="135" type="line" smooth="yes"/>
      <point x="535" y="61"/>
      <point x="448" y="29"/>
      <point x="360" y="29" type="curve" smooth="yes"/>
      <point x="308" y="29"/>
      <point x="291" y="50"/>
    </contour>
  </outline>
</glyph>
<glyph name="e" format="2">
  <advance width="549"/>
  <unicode hex="0065"/>
  <outline>
    <contour>
      <point x="569" y="95" type="line"/>
      <point x="486" y="50"/>
      <point x="422" y="29"/>
      <point x="360" y="29" type="curve" smooth="yes"/>
      <point x="308" y="29"/>
      <point x="291" y="50"/>
      <point x="291" y="83" type="curve" smooth="yes"/>
      <point x="291" y="132"/>
      <point x="344" y="208"/>
      <point x="421" y="281" type="curve"/>
      <point x="432" y="268" type="line"/>
      <point x="838" y="268" type="line"/>
      <point x="880" y="322"/>
      <point x="905" y="377"/>
      <point x="905" y="425" type="curve" smooth="yes"/>
      <point x="905" y="469"/>
      <point x="874" y="502"/>
      <point x="803" y="502" type="curve" smooth="yes"/>
      <point x="573" y="502"/>
      <point x="250" y="225"/>
      <point x="250" y="67" type="curve" smooth="yes"/>
      <point x="250" y="28"/>
      <point x="283" y="0"/>
      <point x="355" y="0" type="curve" smooth="yes"/>
      <point x="425" y="0"/>
      <point x="509" y="27"/>
      <point x="590" y="69" type="curve"/>
    </contour>
    <contour>
      <point x="795" y="474" type="curve" smooth="yes"/>
      <point x="851" y="474"/>
      <point x="871" y="453"/>
      <point x="871" y="419" type="curve" smooth="yes"/>
      <point x="871" y="383"/>
      <point x="852" y="340"/>
      <point x="818" y="296" type="curve"/>
      <point x="437" y="296" type="line"/>
      <point x="542" y="390"/>
      <point x="684" y="474"/>
    </contour>
  </outline>
</glyph>
<glyph name="f" format="2">
  <advance width="374"/>
  <unicode hex="0066"/>
  <outline>
    <contour>
      <point x="687" y="403" type="line" smooth="yes"/>
      <point x="701" y="415"/>
      <point x="732" y="440"/>
      <point x="771" y="471" type="curve"/>
      <point x="891" y="472" type="line"/>
      <point x="923" y="500" type="line"/>
      <point x="807" y="500" type="line"/>
      <point x="913" y="584"/>
      <point x="1050" y="692"/>
      <point x="1071" y="706" type="curve" smooth="yes"/>
      <point x="1103" y="728"/>
      <point x="1135" y="727"/>
      <point x="1162" y="728" type="curve" smooth="yes"/>
      <point x="1174" y="729"/>
      <point x="1186" y="728"/>
      <point x="1197" y="724" type="curve"/>
      <point x="1226" y="744" type="line"/>
      <point x="1211" y="751"/>
      <point x="1184" y="757"/>
      <point x="1170" y="757" type="curve" smooth="yes"/>
      <point x="1114" y="757"/>
      <point x="1082" y="750"/>
      <point x="1041" y="724" type="curve" smooth="yes"/>
      <point x="1014" y="706"/>
      <point x="862" y="585"/>
      <point x="754" y="500" type="curve"/>
      <point x="631" y="500" type="line"/>
      <point x="595" y="470" type="line"/>
      <point x="718" y="471" type="line"/>
      <point x="687" y="446"/>
      <point x="663" y="427"/>
      <point x="653" y="418" type="curve" smooth="yes"/>
      <point x="150" y="-1" type="line"/>
      <point x="206" y="-2" type="line"/>
    </contour>
  </outline>
</glyph>
<glyph name="g" format="2">
  <advance width="599"/>
  <unicode hex="0067"/>
  <outline>
    <contour>
      <point x="1006" y="409" type="line"/>
      <point x="986" y="433" type="line"/>
      <point x="372" y="-79" type="line" smooth="yes"/>
      <point x="231" y="-196"/>
      <point x="149" y="-239"/>
      <point x="81" y="-239" type="curve" smooth="yes"/>
      <point x="27" y="-239"/>
      <point x="-6" y="-212"/>
      <point x="-6" y="-181" type="curve" smooth="yes"/>
      <point x="-6" y="-159"/>
      <point x="6" y="-132"/>
      <point x="36" y="-108" type="curve"/>
      <point x="15" y="-83" type="line"/>
      <point x="-32" y="-121"/>
      <point x="-43" y="-145"/>
      <point x="-43" y="-184" type="curve" smooth="yes"/>
      <point x="-43" y="-231"/>
      <point x="16" y="-269"/>
      <point x="72" y="-269" type="curve" smooth="yes"/>
      <point x="154" y="-269"/>
      <point x="247" y="-226"/>
      <point x="393" y="-104" type="curve" smooth="yes"/>
    </contour>
    <contour>
      <point x="895" y="357" type="move"/>
      <point x="901" y="378"/>
      <point x="904" y="401"/>
      <point x="904" y="426" type="curve" smooth="yes"/>
      <point x="904" y="470"/>
      <point x="874" y="502"/>
      <point x="803" y="502" type="curve" smooth="yes"/>
      <point x="573" y="502"/>
      <point x="250" y="225"/>
      <point x="250" y="67" type="curve" smooth="yes"/>
      <point x="250" y="28"/>
      <point x="283" y="0"/>
      <point x="355" y="0" type="curve" smooth="yes"/>
      <point x="406" y="0"/>
      <point x="458" y="12"/>
      <point x="509" y="34" type="curve"/>
    </contour>
    <contour>
      <point x="291" y="83" type="curve" smooth="yes"/>
      <point x="291" y="199"/>
      <point x="593" y="474"/>
      <point x="795" y="474" type="curve" smooth="yes"/>
      <point x="851" y="474"/>
      <point x="871" y="453"/>
      <point x="871" y="419" type="curve" smooth="yes"/>
      <point x="871" y="373"/>
      <point x="850" y="323"/>
      <point x="813" y="288" type="curve"/>
      <point x="630" y="135" type="line" smooth="yes"/>
      <point x="535" y="61"/>
      <point x="448" y="29"/>
      <point x="360" y="29" type="curve" smooth="yes"/>
      <point x="308" y="29"/>
      <point x="291" y="50"/>
    </contour>
  </outline>
</glyph>
<glyph name="h" format="2">
  <advance width="491"/>
  <unicode hex="0068"/>
  <outline>
    <contour>
      <point x="91" y="0" type="line"/>
      <point x="519" y="358" type="line" smooth="yes"/>
      <point x="610" y="434"/>
      <point x="696" y="474"/>
      <point x="790" y="474" type="curve" smooth="yes"/>
      <point x="833" y="474"/>
      <point x="861" y="452"/>
      <point x="861" y="423" type="curve" smooth="yes"/>
      <point x="861" y="398"/>
      <point x="837" y="362"/>
      <point x="775" y="311" type="curve" smooth="yes"/>
      <point x="429" y="26" type="line"/>
      <point x="451" y="0" type="line"/>
      <point x="831" y="321" type="line" smooth="yes"/>
      <point x="884" y="365"/>
      <point x="902" y="396"/>
      <point x="902" y="429" type="curve" smooth="yes"/>
      <point x="902" y="470"/>
      <point x="865" y="502"/>
      <point x="798" y="502" type="curve" smooth="yes"/>
      <point x="753" y="502"/>
      <point x="672" y="481"/>
      <point x="631" y="455" type="curve"/>
      <point x="987" y="750" type="line"/>
      <point x="967" y="774" type="line"/>
      <point x="70" y="25" type="line"/>
    </contour>
  </outline>
</glyph>
<glyph name="i" format="2">
  <advance width="133"/>
  <unicode hex="0069"/>
  <outline>
    <contour>
      <point x="835" y="664" type="line"/>
      <point x="717" y="568" type="line"/>
      <point x="770" y="569" type="line"/>
      <point x="886" y="666" type="line"/>
    </contour>
    <contour>
      <point x="638" y="499" type="line"/>
      <point x="41" y="0" type="line"/>
      <point x="93" y="0" type="line"/>
      <point x="689" y="501" type="line"/>
    </contour>
  </outline>
</glyph>
<glyph name="j" format="2">
  <advance width="500"/>
  <unicode hex="006A"/>
  <outline>
    <contour>
      <point x="1065" y="544" type="line"/>
      <point x="1215" y="669" type="line"/>
      <point x="1195" y="693" type="line"/>
      <point x="1044" y="569" type="line"/>
    </contour>
    <contour>
      <point x="1016" y="500" type="line"/>
      <point x="996" y="524" type="line"/>
      <point x="273" y="-79" type="line" smooth="yes"/>
      <point x="132" y="-197"/>
      <point x="50" y="-239"/>
      <point x="-18" y="-239" type="curve" smooth="yes"/>
      <point x="-72" y="-239"/>
      <point x="-105" y="-212"/>
      <point x="-105" y="-181" type="curve" smooth="yes"/>
      <point x="-105" y="-159"/>
      <point x="-93" y="-132"/>
      <point x="-63" y="-108" type="curve"/>
      <point x="-84" y="-83" type="line"/>
      <point x="-131" y="-121"/>
      <point x="-142" y="-145"/>
      <point x="-142" y="-184" type="curve" smooth="yes"/>
      <point x="-142" y="-231"/>
      <point x="-83" y="-269"/>
      <point x="-27" y="-269" type="curve" smooth="yes"/>
      <point x="55" y="-269"/>
      <point x="148" y="-226"/>
      <point x="294" y="-104" type="curve" smooth="yes"/>
    </contour>
  </outline>
</glyph>
<glyph name="k" format="2">
  <advance width="487"/>
  <unicode hex="006B"/>
  <outline>
    <contour>
      <point x="91" y="0" type="line"/>
      <point x="524" y="362" type="line"/>
      <point x="635" y="445"/>
      <point x="728" y="474"/>
      <point x="801" y="474" type="curve" smooth="yes"/>
      <point x="844" y="474"/>
      <point x="877" y="452"/>
      <point x="877" y="423" type="curve" smooth="yes"/>
      <point x="877" y="360"/>
      <point x="747" y="298"/>
      <point x="495" y="278" type="curve"/>
      <point x="424" y="32" type="line"/>
      <point x="451" y="0" type="line"/>
      <point x="520" y="245" type="line"/>
      <point x="818" y="280"/>
      <point x="913" y="348"/>
      <point x="913" y="429" type="curve" smooth="yes"/>
      <point x="913" y="470"/>
      <point x="876" y="502"/>
      <point x="809" y="502" type="curve" smooth="yes"/>
      <point x="768" y="502"/>
      <point x="689" y="485"/>
      <point x="644" y="463" type="curve"/>
      <point x="987" y="750" type="line"/>
      <point x="967" y="774" type="line"/>
      <point x="70" y="25" type="line"/>
    </contour>
  </outline>
</glyph>
<glyph name="l" format="2">
  <advance width="133"/>
  <unicode hex="006C"/>
  <outline>
    <contour>
      <point x="91" y="0" type="line"/>
      <point x="987" y="750" type="line"/>
      <point x="967" y="774" type="line"/>
      <point x="70" y="25" type="line"/>
    </contour>
  </outline>
</glyph>
<glyph name="m" format="2">
  <advance width="929"/>
  <unicode hex="006D"/>
  <outline>
    <contour>
      <point x="131" y="0" type="line"/>
      <point x="559" y="358" type="line" smooth="yes"/>
      <point x="650" y="434"/>
      <point x="736" y="474"/>
      <point x="830" y="474" type="curve" smooth="yes"/>
      <point x="873" y="474"/>
      <point x="901" y="452"/>
      <point x="901" y="423" type="curve" smooth="yes"/>
      <point x="901" y="400"/>
      <point x="881" y="368"/>
      <point x="830" y="324" type="curve" smooth="yes"/>
      <point x="470" y="26" type="line"/>
      <point x="492" y="0" type="line"/>
      <point x="906" y="349" type="line" smooth="yes"/>
      <point x="997" y="426"/>
      <point x="1083" y="465"/>
      <point x="1177" y="465" type="curve" smooth="yes"/>
      <point x="1220" y="465"/>
      <point x="1248" y="443"/>
      <point x="1248" y="414" type="curve" smooth="yes"/>
      <point x="1248" y="389"/>
      <point x="1221" y="354"/>
      <point x="1159" y="302" type="curve" smooth="yes"/>
      <point x="827" y="26" type="line"/>
      <point x="849" y="0" type="line"/>
      <point x="1218" y="312" type="line" smooth="yes"/>
      <point x="1271" y="357"/>
      <point x="1289" y="387"/>
      <point x="1289" y="420" type="curve" smooth="yes"/>
      <point x="1289" y="461"/>
      <point x="1252" y="493"/>
      <point x="1185" y="493" type="curve" smooth="yes"/>
      <point x="1108" y="493"/>
      <point x="1020" y="463"/>
      <point x="940" y="410" type="curve"/>
      <point x="941" y="416"/>
      <point x="942" y="423"/>
      <point x="942" y="429" type="curve" smooth="yes"/>
      <point x="942" y="470"/>
      <point x="905" y="502"/>
      <point x="838" y="502" type="curve" smooth="yes"/>
      <point x="793" y="502"/>
      <point x="712" y="481"/>
      <point x="671" y="455" type="curve"/>
      <point x="726" y="500" type="line"/>
      <point x="703" y="521" type="line"/>
      <point x="110" y="25" type="line"/>
    </contour>
  </outline>
</glyph>
<glyph name="n" format="2">
  <advance width="571"/>
  <unicode hex="006E"/>
  <outline>
    <contour>
      <point x="131" y="0" type="line"/>
      <point x="559" y="358" type="line" smooth="yes"/>
      <point x="650" y="434"/>
      <point x="736" y="474"/>
      <point x="830" y="474" type="curve" smooth="yes"/>
      <point x="873" y="474"/>
      <point x="901" y="452"/>
      <point x="901" y="423" type="curve" smooth="yes"/>
      <point x="901" y="398"/>
      <point x="877" y="362"/>
      <point x="815" y="311" type="curve" smooth="yes"/>
      <point x="469" y="26" type="line"/>
      <point x="491" y="0" type="line"/>
      <point x="871" y="321" type="line" smooth="yes"/>
      <point x="924" y="365"/>
      <point x="942" y="396"/>
      <point x="942" y="429" type="curve" smooth="yes"/>
      <point x="942" y="470"/>
      <point x="905" y="502"/>
      <point x="838" y="502" type="curve" smooth="yes"/>
      <point x="793" y="502"/>
      <point x="712" y="481"/>
      <point x="671" y="455" type="curve"/>
      <point x="726" y="500" type="line"/>
      <point x="706" y="524" type="line"/>
      <point x="110" y="25" type="line"/>
    </contour>
  </outline>
</glyph>
<glyph name="o" format="2">
  <advance width="568"/>
  <unicode hex="006F"/>
  <outline>
    <contour>
      <point x="250" y="67" type="curve" smooth="yes"/>
      <point x="250" y="28"/>
      <point x="283" y="0"/>
      <point x="355" y="0" type="curve" smooth="yes"/>
      <point x="567" y="0"/>
      <point x="905" y="246"/>
      <point x="905" y="425" type="curve" smooth="yes"/>
      <point x="905" y="469"/>
      <point x="874" y="502"/>
      <point x="803" y="502" type="curve" smooth="yes"/>
      <point x="573" y="502"/>
      <point x="250" y="225"/>
    </contour>
    <contour>
      <point x="360" y="29" type="curve" smooth="yes"/>
      <point x="308" y="29"/>
      <point x="291" y="50"/>
      <point x="291" y="83" type="curve" smooth="yes"/>
      <point x="291" y="199"/>
      <point x="593" y="474"/>
      <point x="795" y="474" type="curve" smooth="yes"/>
      <point x="851" y="474"/>
      <point x="871" y="453"/>
      <point x="871" y="419" type="curve" smooth="yes"/>
      <point x="871" y="270"/>
      <point x="543" y="29"/>
    </contour>
  </outline>
</glyph>
<glyph name="p" format="2">
  <advance width="549"/>
  <unicode hex="0070"/>
  <outline>
    <contour>
      <point x="-207" y="-250" type="line"/>
      <point x="284" y="161" type="line"/>
      <point x="254" y="127"/>
      <point x="246" y="103"/>
      <point x="246" y="67" type="curve" smooth="yes"/>
      <point x="246" y="28"/>
      <point x="279" y="0"/>
      <point x="351" y="0" type="curve" smooth="yes"/>
      <point x="455" y="0"/>
      <point x="594" y="65"/>
      <point x="717" y="166" type="curve" smooth="yes"/>
      <point x="839" y="266"/>
      <point x="901" y="372"/>
      <point x="901" y="425" type="curve" smooth="yes"/>
      <point x="901" y="469"/>
      <point x="870" y="502"/>
      <point x="799" y="502" type="curve" smooth="yes"/>
      <point x="767" y="502"/>
      <point x="693" y="493"/>
      <point x="642" y="461" type="curve"/>
      <point x="689" y="500" type="line"/>
      <point x="669" y="524" type="line"/>
      <point x="-228" y="-225" type="line"/>
    </contour>
    <contour>
      <point x="356" y="29" type="curve" smooth="yes"/>
      <point x="304" y="29"/>
      <point x="287" y="50"/>
      <point x="287" y="83" type="curve" smooth="yes"/>
      <point x="287" y="139"/>
      <point x="342" y="198"/>
      <point x="410" y="266" type="curve"/>
      <point x="507" y="346" type="line" smooth="yes"/>
      <point x="608" y="432"/>
      <point x="694" y="474"/>
      <point x="791" y="474" type="curve" smooth="yes"/>
      <point x="847" y="474"/>
      <point x="867" y="453"/>
      <point x="867" y="419" type="curve" smooth="yes"/>
      <point x="867" y="381"/>
      <point x="792" y="266"/>
      <point x="692" y="187" type="curve" smooth="yes"/>
      <point x="574" y="94"/>
      <point x="439" y="29"/>
    </contour>
  </outline>
</glyph>
<glyph name="q" format="2">
  <advance width="567"/>
  <unicode hex="0071"/>
  <outline>
    <contour>
      <point x="134" y="-251" type="line"/>
      <point x="188" y="-251" type="line"/>
      <point x="649" y="136" type="line"/>
      <point x="650" y="136"/>
      <point x="650" y="137"/>
      <point x="650" y="137" type="curve"/>
      <point x="1081" y="499" type="line"/>
      <point x="1029" y="498" type="line"/>
      <point x="905" y="395" type="line"/>
      <point x="908" y="402"/>
      <point x="909" y="409"/>
      <point x="910" y="415" type="curve"/>
      <point x="911" y="472"/>
      <point x="853" y="500"/>
      <point x="797" y="500" type="curve" smooth="yes"/>
      <point x="583" y="500"/>
      <point x="235" y="215"/>
      <point x="239" y="75" type="curve" smooth="yes"/>
      <point x="240" y="36"/>
      <point x="275" y="0"/>
      <point x="318" y="0" type="curve" smooth="yes"/>
      <point x="372" y="0"/>
      <point x="430" y="17"/>
      <point x="482" y="40" type="curve"/>
    </contour>
    <contour>
      <point x="346" y="29" type="curve" smooth="yes"/>
      <point x="288" y="29"/>
      <point x="277" y="59"/>
      <point x="276" y="79" type="curve" smooth="yes"/>
      <point x="270" y="219"/>
      <point x="646" y="473"/>
      <point x="801" y="473" type="curve" smooth="yes"/>
      <point x="857" y="473"/>
      <point x="894" y="419"/>
      <point x="855" y="361" type="curve" smooth="yes"/>
      <point x="850" y="353"/>
      <point x="840" y="342"/>
      <point x="829" y="331" type="curve"/>
      <point x="576" y="119" type="line"/>
      <point x="515" y="76"/>
      <point x="386" y="29"/>
    </contour>
  </outline>
</glyph>
<glyph name="r" format="2">
  <advance width="329"/>
  <unicode hex="0072"/>
  <outline>
    <contour>
      <point x="91" y="0" type="line"/>
      <point x="519" y="358" type="line" smooth="yes"/>
      <point x="610" y="434"/>
      <point x="706" y="474"/>
      <point x="800" y="474" type="curve" smooth="yes"/>
      <point x="822" y="474"/>
      <point x="842" y="473"/>
      <point x="858" y="469" type="curve"/>
      <point x="873" y="496" type="line"/>
      <point x="857" y="499"/>
      <point x="836" y="502"/>
      <point x="808" y="502" type="curve" smooth="yes"/>
      <point x="736" y="502"/>
      <point x="672" y="481"/>
      <point x="631" y="455" type="curve"/>
      <point x="686" y="500" type="line"/>
      <point x="666" y="524" type="line"/>
      <point x="70" y="25" type="line"/>
    </contour>
  </outline>
</glyph>
<glyph name="s" format="2">
  <advance width="397"/>
  <unicode hex="0073"/>
  <outline>
    <contour>
      <point x="265" y="-15" type="curve" smooth="yes"/>
      <point x="327" y="-15"/>
      <point x="380" y="1"/>
      <point x="471" y="90" type="curve" smooth="yes"/>
      <point x="619" y="233"/>
      <point x="483" y="293"/>
      <point x="552" y="386" type="curve" smooth="yes"/>
      <point x="606" y="461"/>
      <point x="664" y="482"/>
      <point x="709" y="482" type="curve" smooth="yes"/>
      <point x="784" y="482"/>
      <point x="796" y="419"/>
      <point x="735" y="360" type="curve" smooth="yes"/>
      <point x="707" y="333"/>
      <point x="686" y="319"/>
      <point x="686" y="319" type="curve"/>
      <point x="735" y="320" type="line"/>
      <point x="735" y="320"/>
      <point x="738" y="326"/>
      <point x="764" y="350" type="curve" smooth="yes"/>
      <point x="827" y="408"/>
      <point x="837" y="516"/>
      <point x="719" y="516" type="curve" smooth="yes"/>
      <point x="654" y="516"/>
      <point x="583" y="481"/>
      <point x="522" y="400" type="curve" smooth="yes"/>
      <point x="447" y="297"/>
      <point x="567" y="242"/>
      <point x="450" y="110" type="curve" smooth="yes"/>
      <point x="411" y="65"/>
      <point x="354" y="13"/>
      <point x="278" y="13" type="curve" smooth="yes"/>
      <point x="226" y="13"/>
      <point x="206" y="41"/>
      <point x="215" y="74" type="curve" smooth="yes"/>
      <point x="234" y="143"/>
      <point x="278" y="165"/>
      <point x="286" y="171" type="curve"/>
      <point x="245" y="171" type="line"/>
      <point x="233" y="160"/>
      <point x="193" y="135"/>
      <point x="174" y="66" type="curve" smooth="yes"/>
      <point x="161" y="20"/>
      <point x="193" y="-15"/>
    </contour>
  </outline>
</glyph>
<glyph name="t" format="2">
  <advance width="379"/>
  <unicode hex="0074"/>
  <outline>
    <contour>
      <point x="945" y="500" type="line"/>
      <point x="630" y="500" type="line"/>
      <point x="594" y="473" type="line"/>
      <point x="909" y="473" type="line"/>
    </contour>
    <contour>
      <point x="202" y="0" type="line"/>
      <point x="933" y="611" type="line"/>
      <point x="913" y="635" type="line"/>
      <point x="181" y="25" type="line"/>
    </contour>
  </outline>
</glyph>
<glyph name="u" format="2">
  <advance width="526"/>
  <unicode hex="0075"/>
  <outline>
    <contour>
      <point x="1064" y="524" type="line"/>
      <point x="636" y="166" type="line" smooth="yes"/>
      <point x="545" y="90"/>
      <point x="459" y="50"/>
      <point x="365" y="50" type="curve" smooth="yes"/>
      <point x="322" y="50"/>
      <point x="294" y="72"/>
      <point x="294" y="101" type="curve" smooth="yes"/>
      <point x="294" y="126"/>
      <point x="318" y="162"/>
      <point x="380" y="213" type="curve" smooth="yes"/>
      <point x="726" y="498" type="line"/>
      <point x="704" y="524" type="line"/>
      <point x="324" y="203" type="line" smooth="yes"/>
      <point x="271" y="159"/>
      <point x="253" y="128"/>
      <point x="253" y="95" type="curve" smooth="yes"/>
      <point x="253" y="54"/>
      <point x="290" y="22"/>
      <point x="357" y="22" type="curve" smooth="yes"/>
      <point x="402" y="22"/>
      <point x="483" y="43"/>
      <point x="524" y="69" type="curve"/>
      <point x="469" y="24" type="line"/>
      <point x="489" y="0" type="line"/>
      <point x="1085" y="499" type="line"/>
    </contour>
  </outline>
</glyph>
<glyph name="v" format="2">
  <advance width="515"/>
  <unicode hex="0076"/>
  <outline>
    <contour>
      <point x="282" y="-25" type="line"/>
      <point x="1031" y="500" type="line"/>
      <point x="1011" y="524" type="line"/>
      <point x="265" y="-4" type="line"/>
    </contour>
    <contour>
      <point x="279" y="-21" type="line"/>
      <point x="689" y="500" type="line"/>
      <point x="669" y="524" type="line"/>
      <point x="261" y="0" type="line"/>
    </contour>
  </outline>
</glyph>
<glyph name="w" format="2">
  <advance width="678"/>
  <unicode hex="0077"/>
  <outline>
    <contour>
      <point x="282" y="-25" type="line"/>
      <point x="1031" y="500" type="line"/>
      <point x="1011" y="524" type="line"/>
      <point x="265" y="-4" type="line"/>
    </contour>
    <contour>
      <point x="279" y="-21" type="line"/>
      <point x="689" y="500" type="line"/>
      <point x="669" y="524" type="line"/>
      <point x="261" y="0" type="line"/>
    </contour>
    <contour>
      <point x="465" y="-25" type="line"/>
      <point x="1214" y="500" type="line"/>
      <point x="1194" y="524" type="line"/>
      <point x="448" y="-4" type="line"/>
    </contour>
    <contour>
      <point x="462" y="-21" type="line"/>
      <point x="872" y="500" type="line"/>
      <point x="852" y="524" type="line"/>
      <point x="444" y="0" type="line"/>
    </contour>
  </outline>
</glyph>
<glyph name="x" format="2">
  <advance width="406"/>
  <unicode hex="0078"/>
  <outline>
    <contour>
      <point x="374" y="-2" type="line"/>
      <point x="540" y="266" type="line"/>
      <point x="942" y="500" type="line"/>
      <point x="890" y="499" type="line"/>
      <point x="569" y="313" type="line"/>
      <point x="686" y="500" type="line"/>
      <point x="645" y="499" type="line"/>
      <point x="505" y="275" type="line"/>
      <point x="29" y="-1" type="line"/>
      <point x="81" y="-2" type="line"/>
      <point x="476" y="229" type="line"/>
      <point x="332" y="-1" type="line"/>
    </contour>
  </outline>
</glyph>
<glyph name="y" format="2">
  <advance width="466"/>
  <unicode hex="0079"/>
  <outline>
    <contour>
      <point x="-93" y="-250" type="line"/>
      <point x="1032" y="500" type="line"/>
      <point x="981" y="499" type="line"/>
      <point x="318" y="58" type="line"/>
      <point x="667" y="500" type="line"/>
      <point x="625" y="499" type="line"/>
      <point x="230" y="0" type="line"/>
      <point x="-145" y="-250" type="line"/>
    </contour>
  </outline>
</glyph>
<glyph name="z" format="2">
  <advance width="465"/>
  <unicode hex="007A"/>
  <outline>
    <contour>
      <point x="468" y="28" type="line"/>
      <point x="146" y="28" type="line"/>
      <point x="1030" y="500" type="line"/>
      <point x="626" y="500" type="line"/>
      <point x="594" y="473" type="line"/>
      <point x="912" y="473" type="line"/>
      <point x="30" y="0" type="line"/>
      <point x="435" y="0" type="line"/>
    </contour>
  </outline>
</glyph>
<glyph name="ccedilla" format="2">
  <advance width="500"/>
  <unicode hex="00E7"/>
  <outline>
    <contour>
      <point x="397" y="89" type="curve"/>
      <point x="392" y="89"/>
      <point x="380" y="79"/>
      <point x="376" y="75" type="curve"/>
      <point x="371" y="71"/>
      <point x="360" y="58"/>
      <point x="354" y="55" type="curve"/>
      <point x="349" y="52"/>
      <point x="342" y="51"/>
      <point x="336" y="45" type="curve"/>
      <point x="329" y="39"/>
      <point x="321" y="29"/>
      <point x="310" y="26" type="curve" smooth="yes"/>
      <point x="300" y="23"/>
      <point x="264" y="12"/>
      <point x="259" y="10" type="curve"/>
      <point x="253" y="9"/>
      <point x="229" y="10"/>
      <point x="222" y="8" type="curve" smooth="yes"/>
      <point x="216" y="6"/>
      <point x="191" y="2"/>
      <point x="181" y="2" type="curve" smooth="yes"/>
      <point x="171" y="2"/>
      <point x="141" y="9"/>
      <point x="132" y="12" type="curve"/>
      <point x="123" y="14"/>
      <point x="117" y="10"/>
      <point x="109" y="12" type="curve" smooth="yes"/>
      <point x="100" y="14"/>
      <point x="58" y="37"/>
      <point x="55" y="63" type="curve" smooth="yes"/>
      <point x="52" y="89"/>
      <point x="60" y="104"/>
      <point x="63" y="111" type="curve"/>
      <point x="67" y="117"/>
      <point x="74" y="124"/>
      <point x="77" y="132" type="curve" smooth="yes"/>
      <point x="80" y="140"/>
      <point x="80" y="144"/>
      <point x="86" y="149" type="curve"/>
      <point x="91" y="154"/>
      <point x="120" y="172"/>
      <point x="133" y="182" type="curve" smooth="yes"/>
      <point x="146" y="192"/>
      <point x="182" y="220"/>
      <point x="200" y="238" type="curve" smooth="yes"/>
      <point x="218" y="256"/>
      <point x="245" y="285"/>
      <point x="262" y="303" type="curve" smooth="yes"/>
      <point x="279" y="320"/>
      <point x="286" y="327"/>
      <point x="295" y="337" type="curve"/>
      <point x="303" y="347"/>
      <point x="315" y="363"/>
      <point x="324" y="373" type="curve" smooth="yes"/>
      <point x="333" y="383"/>
      <point x="340" y="392"/>
      <point x="346" y="397" type="curve"/>
      <point x="352" y="401"/>
      <point x="363" y="410"/>
      <point x="370" y="415" type="curve"/>
      <point x="376" y="421"/>
      <point x="379" y="428"/>
      <point x="385" y="432" type="curve"/>
      <point x="391" y="435"/>
      <point x="403" y="440"/>
      <point x="409" y="446" type="curve"/>
      <point x="415" y="451"/>
      <point x="425" y="466"/>
      <point x="434" y="468" type="curve"/>
      <point x="442" y="471"/>
      <point x="470" y="487"/>
      <point x="508" y="487" type="curve" smooth="yes"/>
      <point x="545" y="488"/>
      <point x="553" y="480"/>
      <point x="562" y="480" type="curve" smooth="yes"/>
      <point x="571" y="480"/>
      <point x="590" y="480"/>
      <point x="598" y="474" type="curve" smooth="yes"/>
      <point x="605" y="469"/>
      <point x="615" y="452"/>
      <point x="623" y="448" type="curve"/>
      <point x="631" y="443"/>
      <point x="642" y="432"/>
      <point x="641" y="421" type="curve"/>
      <point x="641" y="410"/>
      <point x="645" y="400"/>
      <point x="643" y="395" type="curve"/>
      <point x="640" y="389"/>
      <point x="627" y="353"/>
      <point x="601" y="329" type="curve" smooth="yes"/>
      <point x="576" y="304"/>
      <point x="575" y="304"/>
      <point x="570" y="297" type="curve" smooth="yes"/>
      <point x="566" y="291"/>
      <point x="566" y="286"/>
      <point x="559" y="283" type="curve" smooth="yes"/>
      <point x="551" y="280"/>
      <point x="539" y="263"/>
      <point x="533" y="256" type="curve"/>
      <point x="527" y="250"/>
      <point x="511" y="243"/>
      <point x="513" y="236" type="curve" smooth="yes"/>
      <point x="515" y="229"/>
      <point x="524" y="238"/>
      <point x="524" y="238" type="curve"/>
      <point x="524" y="238"/>
      <point x="544" y="253"/>
      <point x="550" y="261" type="curve" smooth="yes"/>
      <point x="556" y="269"/>
      <point x="562" y="270"/>
      <point x="566" y="275" type="curve" smooth="yes"/>
      <point x="570" y="280"/>
      <point x="571" y="286"/>
      <point x="575" y="290" type="curve" smooth="yes"/>
      <point x="580" y="295"/>
      <point x="596" y="308"/>
      <point x="601" y="316" type="curve"/>
      <point x="606" y="323"/>
      <point x="646" y="360"/>
      <point x="649" y="381" type="curve" smooth="yes"/>
      <point x="653" y="402"/>
      <point x="653" y="391"/>
      <point x="658" y="396" type="curve"/>
      <point x="663" y="400"/>
      <point x="663" y="419"/>
      <point x="656" y="425" type="curve"/>
      <point x="649" y="430"/>
      <point x="646" y="457"/>
      <point x="636" y="461" type="curve"/>
      <point x="627" y="464"/>
      <point x="619" y="475"/>
      <point x="613" y="479" type="curve" smooth="yes"/>
      <point x="607" y="483"/>
      <point x="593" y="493"/>
      <point x="584" y="490" type="curve"/>
      <point x="575" y="488"/>
      <point x="550" y="498"/>
      <point x="533" y="498" type="curve" smooth="yes"/>
      <point x="515" y="498"/>
      <point x="496" y="496"/>
      <point x="489" y="494" type="curve" smooth="yes"/>
      <point x="482" y="492"/>
      <point x="471" y="491"/>
      <point x="466" y="491" type="curve" smooth="yes"/>
      <point x="460" y="491"/>
      <point x="460" y="487"/>
      <point x="452" y="487" type="curve" smooth="yes"/>
      <point x="444" y="487"/>
      <point x="445" y="480"/>
      <point x="438" y="475" type="curve"/>
      <point x="430" y="470"/>
      <point x="417" y="461"/>
      <point x="413" y="459" type="curve"/>
      <point x="410" y="457"/>
      <point x="392" y="441"/>
      <point x="389" y="439" type="curve"/>
      <point x="386" y="436"/>
      <point x="381" y="437"/>
      <point x="377" y="430" type="curve"/>
      <point x="372" y="424"/>
      <point x="350" y="408"/>
      <point x="344" y="403" type="curve"/>
      <point x="338" y="397"/>
      <point x="318" y="378"/>
      <point x="310" y="367" type="curve"/>
      <point x="301" y="356"/>
      <point x="274" y="322"/>
      <point x="266" y="314" type="curve"/>
      <point x="257" y="306"/>
      <point x="207" y="252"/>
      <point x="189" y="237" type="curve" smooth="yes"/>
      <point x="172" y="222"/>
      <point x="126" y="184"/>
      <point x="111" y="175" type="curve" smooth="yes"/>
      <point x="96" y="166"/>
      <point x="83" y="156"/>
      <point x="80" y="151" type="curve"/>
      <point x="77" y="145"/>
      <point x="73" y="136"/>
      <point x="68" y="129" type="curve"/>
      <point x="64" y="122"/>
      <point x="56" y="116"/>
      <point x="53" y="104" type="curve" smooth="yes"/>
      <point x="50" y="93"/>
      <point x="44" y="76"/>
      <point x="45" y="66" type="curve" smooth="yes"/>
      <point x="46" y="56"/>
      <point x="54" y="41"/>
      <point x="64" y="32" type="curve"/>
      <point x="74" y="24"/>
      <point x="94" y="11"/>
      <point x="107" y="8" type="curve" smooth="yes"/>
      <point x="121" y="5"/>
      <point x="126" y="6"/>
      <point x="130" y="6" type="curve"/>
      <point x="134" y="7"/>
      <point x="141" y="-2"/>
      <point x="152" y="-2" type="curve" smooth="yes"/>
      <point x="163" y="-2"/>
      <point x="172" y="-7"/>
      <point x="181" y="-6" type="curve" smooth="yes"/>
      <point x="189" y="-5"/>
      <point x="229" y="-2"/>
      <point x="245" y="3" type="curve" smooth="yes"/>
      <point x="260" y="8"/>
      <point x="282" y="7"/>
      <point x="295" y="15" type="curve"/>
      <point x="307" y="24"/>
      <point x="311" y="14"/>
      <point x="337" y="37" type="curve" smooth="yes"/>
      <point x="363" y="60"/>
      <point x="355" y="47"/>
      <point x="370" y="61" type="curve" smooth="yes"/>
      <point x="385" y="75"/>
      <point x="394" y="76"/>
      <point x="397" y="79" type="curve"/>
      <point x="399" y="82"/>
      <point x="402" y="88"/>
    </contour>
  </outline>
</glyph>
